# xmcd
# Copyright (C) 1995-1998 Ti Kan
#
# Track frame offsets:
#       150
#       15063
#       24983
#       37818
#
# Disc length: 661 seconds
#
# Revision: 0
# Processed by: cddbd v1.5.2PL0 Copyright (c) Steve Scherf et al.
# Submitted via: CD-Transfer v1.0
#
DISCID=16029304
DTITLE=Aufgeiger - 
DYEAR=08
DGENRE=
TTITLE0=1 Minut´n  Frei Sein (08)
TTITLE1=Wir Spiel´n Kan Oberkrainer (08)
TTITLE2=Hob Idi - Mog I Di (08)
TTITLE3=Fdh (08)
EXTD=
EXTT0=
EXTT1=
EXTT2=
EXTT3=
PLAYORDER=
